<svg xmlns="http://www.w3.org/2000/svg" xmlns:xlink="http://www.w3.org/1999/xlink" width="126" height="129" viewBox="0 0 126 129">
  <defs>
    <filter id="Ellipse_7" x="0" y="0" width="126" height="129" filterUnits="userSpaceOnUse">
      <feOffset dy="9" input="SourceAlpha"/>
      <feGaussianBlur stdDeviation="2" result="blur"/>
      <feFlood flood-opacity="0.161"/>
      <feComposite operator="in" in2="blur"/>
      <feComposite in="SourceGraphic"/>
    </filter>
  </defs>
  <g id="Group_57" data-name="Group 57" transform="translate(-230 -322)">
    <g transform="matrix(1, 0, 0, 1, 230, 322)" filter="url(#Ellipse_7)">
      <g id="Ellipse_7-2" data-name="Ellipse 7" transform="translate(6)" fill="#fff" stroke="#08135f" stroke-width="5">
        <circle cx="57" cy="57" r="57" stroke="none"/>
        <circle cx="57" cy="57" r="54.5" fill="none"/>
      </g>
    </g>
    <g id="Group_56" data-name="Group 56" transform="translate(174.188 19.119)">
      <g id="air-conditioner" transform="translate(78.548 338.144)">
        <g id="Group_46" data-name="Group 46" transform="translate(0 0)">
          <g id="Group_31" data-name="Group 31" transform="translate(0 16.4)">
            <g id="Group_28" data-name="Group 28" transform="translate(0 0)">
              <g id="Group_27" data-name="Group 27">
                <g id="Group_26" data-name="Group 26">
                  <g id="Group_25" data-name="Group 25">
                    <path id="Path_18" data-name="Path 18" d="M96.749,272.657l20.132-7L96.749,254.292,56.485,256.31v11.782l4.574,4.575Z" transform="translate(-56.485 -254.292)" fill="#dbe1e8"/>
                  </g>
                </g>
              </g>
            </g>
            <g id="Group_30" data-name="Group 30" transform="translate(40.264)">
              <g id="Group_29" data-name="Group 29">
                <path id="Path_19" data-name="Path 19" d="M256,272.657V254.292l40.264,2.018v11.782l-4.553,4.553Z" transform="translate(-256 -254.292)" fill="#b8c2cc"/>
              </g>
            </g>
          </g>
          <g id="Group_38" data-name="Group 38" transform="translate(4.336 25.35)">
            <g id="Group_35" data-name="Group 35">
              <g id="Group_34" data-name="Group 34">
                <g id="Group_33" data-name="Group 33">
                  <g id="Group_32" data-name="Group 32">
                    <path id="Path_20" data-name="Path 20" d="M113.9,304.1H77.972V298.64H113.9l17.964,3.121Z" transform="translate(-77.972 -298.64)" fill="#0051be"/>
                  </g>
                </g>
              </g>
            </g>
            <g id="Group_37" data-name="Group 37" transform="translate(35.927 0)">
              <g id="Group_36" data-name="Group 36">
                <path id="Path_21" data-name="Path 21" d="M256,298.64h35.927V304.1H256Z" transform="translate(-256 -298.64)" fill="#00429c"/>
              </g>
            </g>
          </g>
          <g id="Group_45" data-name="Group 45">
            <g id="Group_42" data-name="Group 42" transform="translate(0 0)">
              <g id="Group_41" data-name="Group 41">
                <g id="Group_40" data-name="Group 40">
                  <g id="Group_39" data-name="Group 39">
                    <path id="Path_22" data-name="Path 22" d="M96.749,192.656H56.485V173.027H96.749l20.132,11.228Z" transform="translate(-56.485 -173.027)" fill="#f7f9fa"/>
                  </g>
                </g>
              </g>
            </g>
            <g id="Group_44" data-name="Group 44" transform="translate(40.264)">
              <g id="Group_43" data-name="Group 43">
                <path id="Path_23" data-name="Path 23" d="M256,173.027h40.264v19.629H256Z" transform="translate(-256 -173.027)" fill="#dbe1e8"/>
              </g>
            </g>
          </g>
          <path id="Path_24" data-name="Path 24" d="M77.972,237.293h15.5v4.036h-15.5Z" transform="translate(-73.636 -224.324)" fill="#ff6379"/>
          <circle id="Ellipse_6" data-name="Ellipse 6" cx="2.018" cy="2.018" r="2.018" transform="translate(23.017 12.969)" fill="#00eecf"/>
        </g>
        <g id="Group_54" data-name="Group 54" transform="translate(20.797 37.564)">
          <g id="Group_50" data-name="Group 50" transform="translate(11.944)">
            <path id="Path_29" data-name="Path 29" d="M221.748,371.83h-3.027a5.182,5.182,0,0,1,.806-2.864,2.481,2.481,0,0,0,0-2.717,5.492,5.492,0,0,1,0-5.728,2.234,2.234,0,0,0,.4-1.358h3.027a5.181,5.181,0,0,1-.806,2.864,2.481,2.481,0,0,0,0,2.716,5.492,5.492,0,0,1,0,5.729A2.235,2.235,0,0,0,221.748,371.83Z" transform="translate(-218.721 -359.163)" fill="#9de1f7"/>
          </g>
          <g id="Group_51" data-name="Group 51">
            <path id="Path_30" data-name="Path 30" d="M162.565,371.83h-3.027a5.182,5.182,0,0,1,.806-2.864,2.481,2.481,0,0,0,0-2.717,5.492,5.492,0,0,1,0-5.728,2.234,2.234,0,0,0,.4-1.358h3.027a5.181,5.181,0,0,1-.806,2.864,2.481,2.481,0,0,0,0,2.716,5.492,5.492,0,0,1,0,5.729A2.235,2.235,0,0,0,162.565,371.83Z" transform="translate(-159.538 -359.163)" fill="#9de1f7"/>
          </g>
          <g id="Group_52" data-name="Group 52" transform="translate(35.831)">
            <path id="Path_31" data-name="Path 31" d="M340.114,371.83h-3.027a5.182,5.182,0,0,1,.806-2.864,2.481,2.481,0,0,0,0-2.717,5.492,5.492,0,0,1,0-5.728,2.234,2.234,0,0,0,.4-1.358h3.027a5.181,5.181,0,0,1-.806,2.864,2.481,2.481,0,0,0,0,2.716,5.493,5.493,0,0,1,0,5.729A2.235,2.235,0,0,0,340.114,371.83Z" transform="translate(-337.087 -359.163)" fill="#5ecdf3"/>
          </g>
          <g id="Group_53" data-name="Group 53" transform="translate(23.887)">
            <path id="Path_32" data-name="Path 32" d="M280.931,371.83H277.9a5.182,5.182,0,0,1,.806-2.864,2.481,2.481,0,0,0,0-2.717,5.492,5.492,0,0,1,0-5.728,2.234,2.234,0,0,0,.4-1.358h3.027a5.181,5.181,0,0,1-.806,2.864,2.481,2.481,0,0,0,0,2.716,5.493,5.493,0,0,1,0,5.729A2.235,2.235,0,0,0,280.931,371.83Z" transform="translate(-277.904 -359.163)" fill="#5ecdf3"/>
          </g>
        </g>
      </g>
    </g>
  </g>
</svg>
