<svg xmlns="http://www.w3.org/2000/svg" xmlns:xlink="http://www.w3.org/1999/xlink" width="126" height="151" viewBox="0 0 126 151">
  <defs>
    <filter id="Ellipse_3" x="0" y="0" width="126" height="129" filterUnits="userSpaceOnUse">
      <feOffset dy="9" input="SourceAlpha"/>
      <feGaussianBlur stdDeviation="2" result="blur"/>
      <feFlood flood-opacity="0.161"/>
      <feComposite operator="in" in2="blur"/>
      <feComposite in="SourceGraphic"/>
    </filter>
    <filter id="Path_10" x="39.998" y="22.303" width="45.799" height="74.698" filterUnits="userSpaceOnUse">
      <feOffset dy="6" input="SourceAlpha"/>
      <feGaussianBlur result="blur-2"/>
      <feFlood flood-opacity="0.161"/>
      <feComposite operator="in" in2="blur-2"/>
      <feComposite in="SourceGraphic"/>
    </filter>
  </defs>
  <g id="Group_3" data-name="Group 3" transform="translate(-230 -106)">
    <g transform="matrix(1, 0, 0, 1, 230, 106)" filter="url(#Ellipse_3)">
      <g id="Ellipse_3-2" data-name="Ellipse 3" transform="translate(6)" fill="#fff" stroke="#707070" stroke-width="4" stroke-dasharray="1" opacity="0.4">
        <circle cx="57" cy="57" r="57" stroke="none"/>
        <circle cx="57" cy="57" r="55" fill="none"/>
      </g>
    </g>
    <text id="Power_Outlet" data-name="Power Outlet" transform="translate(245 253)" fill="#2e2a2a" font-size="16" font-family="SegoeUI-Semibold, Segoe UI" font-weight="600"><tspan x="0" y="0">Power Outlet</tspan></text>
    <g id="Group_1" data-name="Group 1" transform="translate(5 2.295)">
      <g id="power-24px" transform="translate(264.998 126.008)">
        <g transform="matrix(1, 0, 0, 1, -40, -22.3)" filter="url(#Path_10)">
          <path id="Path_10-2" data-name="Path 10" d="M44.2,18.266,44.166,3H36.532V18.266H21.266V3H13.633V18.266h-.038C9.817,18.228,6,22.045,6,25.861V46.814L19.358,60.248V71.7H38.441V60.248L51.8,46.852V25.861C51.8,22.045,47.982,18.228,44.2,18.266Z" transform="translate(34 19.3)" fill="#92d5d6"/>
        </g>
      </g>
      <path id="Subtraction_1" data-name="Subtraction 1" d="M15.54,68.7H0V57.248l13.358-13.4V22.861a8.11,8.11,0,0,0-7.485-7.6h7.759V0h7.633L21.3,15.266h.056a7.507,7.507,0,0,1,5.179,2.374A7.612,7.612,0,0,1,28.9,22.861V43.852L15.54,57.248V68.7Z" transform="translate(281.898 126.008)" fill="#08135f"/>
    </g>
  </g>
</svg>
