<svg xmlns="http://www.w3.org/2000/svg" xmlns:xlink="http://www.w3.org/1999/xlink" width="126" height="129" viewBox="0 0 126 129">
  <defs>
    <filter id="Ellipse_2" x="0" y="0" width="126" height="129" filterUnits="userSpaceOnUse">
      <feOffset dy="9" input="SourceAlpha"/>
      <feGaussianBlur stdDeviation="2" result="blur"/>
      <feFlood flood-opacity="0.161"/>
      <feComposite operator="in" in2="blur"/>
      <feComposite in="SourceGraphic"/>
    </filter>
    <filter id="Path_8" x="27.505" y="46.074" width="53.916" height="55.458" filterUnits="userSpaceOnUse">
      <feOffset dx="-2" dy="8" input="SourceAlpha"/>
      <feGaussianBlur result="blur-2"/>
      <feFlood flood-opacity="0.161"/>
      <feComposite operator="in" in2="blur-2"/>
      <feComposite in="SourceGraphic"/>
    </filter>
  </defs>
  <g id="Group_4" data-name="Group 4" transform="translate(-62 -106)">
    <g transform="matrix(1, 0, 0, 1, 62, 106)" filter="url(#Ellipse_2)">
      <g id="Ellipse_2-2" data-name="Ellipse 2" transform="translate(6)" fill="#fff" stroke="#08135f" stroke-width="5" stroke-dasharray="4 2">
        <circle cx="57" cy="57" r="57" stroke="none"/>
        <circle cx="57" cy="57" r="54.5" fill="none"/>
      </g>
    </g>
    <path id="Path_5" data-name="Path 5" d="M65.256,23.87a2.068,2.068,0,0,0,3.1,0l5.109-5.418a2.135,2.135,0,0,0-3.1-2.941L66.882,19.3l-1.161-1.238a2.135,2.135,0,1,0-3.1,2.941Z" transform="translate(70.546 120.704)" fill="#08135f"/>
    <path id="Path_6" data-name="Path 6" d="M65.956,30.289A13.894,13.894,0,1,0,52.1,16.356,13.842,13.842,0,0,0,65.956,30.289Zm0-23.454a9.56,9.56,0,1,1-9.6,9.521A9.6,9.6,0,0,1,65.956,6.835Z" transform="translate(72.788 123.497)" fill="#08135f"/>
    <path id="Path_7" data-name="Path 7" d="M76.823,71.6,65.832,57.9a4.492,4.492,0,0,0-3.406-1.626H52.363l-2.322-5.418h9.366a3.661,3.661,0,0,0,3.638-2.864,3.5,3.5,0,0,0-3.406-4.1H49.576s-3.328-3.174-4.954-4.567c-2.4-2.167-4.49-2.787-6.967-2.013A6.972,6.972,0,0,0,33.4,40.867a6.673,6.673,0,0,0-.155,5.573L39.9,62.386A4.465,4.465,0,0,0,43.926,65.1H59.175a2.021,2.021,0,0,1,1.548.774L70.011,77.48a4.36,4.36,0,0,0,3.406,1.626,4.586,4.586,0,0,0,2.709-.929A4.681,4.681,0,0,0,76.823,71.6Z" transform="translate(77.169 115.705)"/>
    <circle id="Ellipse_1" data-name="Ellipse 1" cx="7.276" cy="7.276" r="7.276" transform="translate(101.524 147.19) rotate(-60.954)"/>
    <g transform="matrix(1, 0, 0, 1, 62, 106)" filter="url(#Path_8)">
      <path id="Path_8-2" data-name="Path 8" d="M53.038,70.411a2.845,2.845,0,0,0-2.09-1.006H38.1a7.99,7.99,0,0,1-7.508-5.031L20.45,39.836h0a5.979,5.979,0,0,0-7.2-3.406A5.844,5.844,0,0,0,9.536,39.6a5.953,5.953,0,0,0-.077,4.877L24.243,80.009a5.912,5.912,0,0,0,5.418,3.638H58.146a2.721,2.721,0,0,0,2.09-4.49Z" transform="translate(20.53 9.89)" fill="#971313"/>
    </g>
  </g>
</svg>
