<svg xmlns="http://www.w3.org/2000/svg" xmlns:xlink="http://www.w3.org/1999/xlink" width="449.177" height="212.901" viewBox="0 0 449.177 212.901">
  <defs>
    <filter id="Path_295" x="2.536" y="145.498" width="438.374" height="44.116" filterUnits="userSpaceOnUse">
      <feOffset dy="3" input="SourceAlpha"/>
      <feGaussianBlur stdDeviation="3" result="blur"/>
      <feFlood flood-opacity="0.161"/>
      <feComposite operator="in" in2="blur"/>
      <feComposite in="SourceGraphic"/>
    </filter>
    <filter id="Path_296" x="225.237" y="145.521" width="44.379" height="44.082" filterUnits="userSpaceOnUse">
      <feOffset dy="3" input="SourceAlpha"/>
      <feGaussianBlur stdDeviation="3" result="blur-2"/>
      <feFlood flood-opacity="0.161"/>
      <feComposite operator="in" in2="blur-2"/>
      <feComposite in="SourceGraphic"/>
    </filter>
    <filter id="Path_297" x="0" y="84.801" width="148.78" height="73.943" filterUnits="userSpaceOnUse">
      <feOffset dy="3" input="SourceAlpha"/>
      <feGaussianBlur stdDeviation="3" result="blur-3"/>
      <feFlood flood-opacity="0.161"/>
      <feComposite operator="in" in2="blur-3"/>
      <feComposite in="SourceGraphic"/>
    </filter>
    <filter id="Path_298" x="17.226" y="22.061" width="211.116" height="64.005" filterUnits="userSpaceOnUse">
      <feOffset dy="3" input="SourceAlpha"/>
      <feGaussianBlur stdDeviation="3" result="blur-4"/>
      <feFlood flood-opacity="0.161"/>
      <feComposite operator="in" in2="blur-4"/>
      <feComposite in="SourceGraphic"/>
    </filter>
    <filter id="Path_299" x="114.396" y="32.21" width="98.283" height="54.063" filterUnits="userSpaceOnUse">
      <feOffset dy="3" input="SourceAlpha"/>
      <feGaussianBlur stdDeviation="3" result="blur-5"/>
      <feFlood flood-opacity="0.161"/>
      <feComposite operator="in" in2="blur-5"/>
      <feComposite in="SourceGraphic"/>
    </filter>
    <filter id="Path_301" x="64.557" y="72.911" width="50.619" height="34.754" filterUnits="userSpaceOnUse">
      <feOffset dy="3" input="SourceAlpha"/>
      <feGaussianBlur stdDeviation="3" result="blur-6"/>
      <feFlood flood-opacity="0.161"/>
      <feComposite operator="in" in2="blur-6"/>
      <feComposite in="SourceGraphic"/>
    </filter>
    <filter id="Path_302" x="16.848" y="77.793" width="64.809" height="38.088" filterUnits="userSpaceOnUse">
      <feOffset dy="3" input="SourceAlpha"/>
      <feGaussianBlur stdDeviation="3" result="blur-7"/>
      <feFlood flood-opacity="0.161"/>
      <feComposite operator="in" in2="blur-7"/>
      <feComposite in="SourceGraphic"/>
    </filter>
    <filter id="Path_304" x="125.056" y="82.344" width="87.092" height="51.923" filterUnits="userSpaceOnUse">
      <feOffset dy="3" input="SourceAlpha"/>
      <feGaussianBlur stdDeviation="3" result="blur-8"/>
      <feFlood flood-opacity="0.161"/>
      <feComposite operator="in" in2="blur-8"/>
      <feComposite in="SourceGraphic"/>
    </filter>
    <filter id="Path_305" x="175.65" y="0" width="117.632" height="157.602" filterUnits="userSpaceOnUse">
      <feOffset dy="3" input="SourceAlpha"/>
      <feGaussianBlur stdDeviation="3" result="blur-9"/>
      <feFlood flood-opacity="0.161"/>
      <feComposite operator="in" in2="blur-9"/>
      <feComposite in="SourceGraphic"/>
    </filter>
    <filter id="Path_306" x="323.736" y="0" width="62.961" height="157.602" filterUnits="userSpaceOnUse">
      <feOffset dy="3" input="SourceAlpha"/>
      <feGaussianBlur stdDeviation="3" result="blur-10"/>
      <feFlood flood-opacity="0.161"/>
      <feComposite operator="in" in2="blur-10"/>
      <feComposite in="SourceGraphic"/>
    </filter>
    <filter id="Path_307" x="354.546" y="114.848" width="54.065" height="42.753" filterUnits="userSpaceOnUse">
      <feOffset dy="3" input="SourceAlpha"/>
      <feGaussianBlur stdDeviation="3" result="blur-11"/>
      <feFlood flood-opacity="0.161"/>
      <feComposite operator="in" in2="blur-11"/>
      <feComposite in="SourceGraphic"/>
    </filter>
    <filter id="Path_308" x="406.996" y="114.848" width="42.181" height="42.753" filterUnits="userSpaceOnUse">
      <feOffset dy="3" input="SourceAlpha"/>
      <feGaussianBlur stdDeviation="3" result="blur-12"/>
      <feFlood flood-opacity="0.161"/>
      <feComposite operator="in" in2="blur-12"/>
      <feComposite in="SourceGraphic"/>
    </filter>
    <filter id="Path_309" x="385.654" y="114.848" width="42.192" height="42.753" filterUnits="userSpaceOnUse">
      <feOffset dy="3" input="SourceAlpha"/>
      <feGaussianBlur stdDeviation="3" result="blur-13"/>
      <feFlood flood-opacity="0.161"/>
      <feComposite operator="in" in2="blur-13"/>
      <feComposite in="SourceGraphic"/>
    </filter>
    <filter id="Path_310" x="283.011" y="68.73" width="46.349" height="88.619" filterUnits="userSpaceOnUse">
      <feOffset dy="3" input="SourceAlpha"/>
      <feGaussianBlur stdDeviation="3" result="blur-14"/>
      <feFlood flood-opacity="0.161"/>
      <feComposite operator="in" in2="blur-14"/>
      <feComposite in="SourceGraphic"/>
    </filter>
    <filter id="Path_311" x="283.011" y="44.183" width="46.349" height="47.31" filterUnits="userSpaceOnUse">
      <feOffset dy="3" input="SourceAlpha"/>
      <feGaussianBlur stdDeviation="3" result="blur-15"/>
      <feFlood flood-opacity="0.161"/>
      <feComposite operator="in" in2="blur-15"/>
      <feComposite in="SourceGraphic"/>
    </filter>
    <filter id="Path_313" x="283.011" y="22.154" width="46.349" height="45.696" filterUnits="userSpaceOnUse">
      <feOffset dy="3" input="SourceAlpha"/>
      <feGaussianBlur stdDeviation="3" result="blur-16"/>
      <feFlood flood-opacity="0.161"/>
      <feComposite operator="in" in2="blur-16"/>
      <feComposite in="SourceGraphic"/>
    </filter>
  </defs>
  <g id="Layer_x0020_1" transform="translate(274.38 -31.099)">
    <g id="_2086582538864" transform="translate(-267 36)">
      <g id="Group_181" data-name="Group 181" transform="translate(0 182.995)">
        <g id="Group_179" data-name="Group 179">
          <path id="Path_293" data-name="Path 293" d="M4.385,183.645l-.618.366A17.109,17.109,0,0,1,0,173.89a13.3,13.3,0,0,1,1.969-7.236,20.7,20.7,0,0,1,5.919-5.782l.492.561a16.291,16.291,0,0,0-4.58,6.686A26.379,26.379,0,0,0,2.53,176.8a14.049,14.049,0,0,0,1.843,6.858Zm13.682-22.67h.664l2.53,15.251a5.019,5.019,0,0,0,.55,1.855c.218.286.79.458,1.729.55v.664H15.445v-.664a3.237,3.237,0,0,0,1.5-.309,1.267,1.267,0,0,0,.584-1.237,6.479,6.479,0,0,0-.046-.859l-.355-2.53H11.449L9.9,176.432a2.672,2.672,0,0,0-.435,1.237q0,.962,1.717.962v.664H5.977v-.664a2.3,2.3,0,0,0,1.145-.561,7.094,7.094,0,0,0,1.065-1.351l9.881-15.743ZM12.056,172.63h4.889l-.973-6.5h.011l-3.927,6.5Zm6.286-12.8Zm-.962,19.475ZM7.74,160.872ZM32.8,173.729l.744.057a6.226,6.226,0,0,0,1.03,3.561A3.562,3.562,0,0,0,37.7,178.87a3.121,3.121,0,0,0,2.473-1.008,3.5,3.5,0,0,0,.916-2.427,4.225,4.225,0,0,0-1.74-2.942,45,45,0,0,1-3.973-3.8,3.793,3.793,0,0,1-.836-2.462,5.222,5.222,0,0,1,1.488-3.824,5.324,5.324,0,0,1,3.95-1.511,6.994,6.994,0,0,1,2.187.412,6.451,6.451,0,0,0,1.66.412,1.2,1.2,0,0,0,1.2-.721h.8L44.79,166.31l-.733-.1q-.481-4.379-3.469-4.385a2.571,2.571,0,0,0-2.084.847,3.215,3.215,0,0,0-.687,2.107,2.415,2.415,0,0,0,.469,1.443,17.882,17.882,0,0,0,2.588,2.336q3.486,2.765,3.492,5.507a5.644,5.644,0,0,1-1.557,4.236,6.469,6.469,0,0,1-4.683,1.511,10.046,10.046,0,0,1-2.668-.412,11,11,0,0,0-1.74-.412,1.013,1.013,0,0,0-.618.183,1.817,1.817,0,0,0-.481.641h-.8l.985-6.068Zm7.488-13.9Zm-3.183,19.475Zm12.88-4.832a6.2,6.2,0,0,0-.16,1.259c0,1.488.618,2.244,1.843,2.244.916,0,1.935-.824,3.023-2.462l.767.458a8.185,8.185,0,0,1-2.3,2.817,4.309,4.309,0,0,1-2.622.9,4.211,4.211,0,0,1-2.9-1.065A3.738,3.738,0,0,1,46.45,175.7a9.077,9.077,0,0,1,2.324-5.816,6.847,6.847,0,0,1,5.37-2.828,3.245,3.245,0,0,1,1.992.607,2.038,2.038,0,0,1,.8,1.74,4.239,4.239,0,0,1-1.832,3.057,9.706,9.706,0,0,1-5.118,2.027Zm.195-.882a6.354,6.354,0,0,0,3.08-1.672,4.2,4.2,0,0,0,1.294-3.114q0-.962-.79-.962c-.641,0-1.317.538-2.015,1.626a12.478,12.478,0,0,0-1.569,4.11Zm3.629-8.015Zm-1.683,13.739Zm5.083,0h0l1.775-5.931a21.67,21.67,0,0,0,.985-4,.657.657,0,0,0-.355-.664,2.62,2.62,0,0,0-1.122-.172h0v-.721s.664-.057,1.992-.183a18.925,18.925,0,0,0,3.332-.6h0L62.3,171.863a17.7,17.7,0,0,1,2.759-4.145,2.452,2.452,0,0,1,1.488-.664,1.336,1.336,0,0,1,1.088.481,1.825,1.825,0,0,1,.424,1.282,2.308,2.308,0,0,1-.424,1.408,1.365,1.365,0,0,1-1.179.584,1.333,1.333,0,0,1-1-.538,2,2,0,0,1-.263-.309c-.092-.149-.183-.218-.286-.218-.389,0-.939.607-1.649,1.832a22.371,22.371,0,0,0-1.9,4.671c-.4,1.374-.721,2.393-.939,3.057H57.212Zm7.373-13.739ZM59.72,179.317Zm18.765-10.385q0,3.589-7.728,10.762h-.721l.16-4.614c0-1.168-.046-2.221-.137-3.137a11.508,11.508,0,0,0-.492-2.794.959.959,0,0,0-.939-.607h-.458v-.721c.847-.126,2.221-.378,4.122-.779a39.5,39.5,0,0,1,.882,8.885h0q3.383-3.744,3.389-5a1.913,1.913,0,0,0-.584-1.03,2.129,2.129,0,0,1-.584-1.374,1.444,1.444,0,0,1,.424-1.042,1.344,1.344,0,0,1,1.03-.447,1.639,1.639,0,0,1,1.088.492,1.739,1.739,0,0,1,.561,1.385Zm6.446,6.812.618.378a11.118,11.118,0,0,1-2.473,2.942,3.38,3.38,0,0,1-1.9.641c-1.248,0-1.878-.6-1.878-1.786a9.314,9.314,0,0,1,.435-2.164l1.328-4.923a7.645,7.645,0,0,0,.321-1.431c0-.561-.469-.847-1.4-.847H79.8v-.721a31.8,31.8,0,0,0,5.4-.779h0l-2.381,8.679a7.081,7.081,0,0,0-.321,1.694.388.388,0,0,0,.114.3.414.414,0,0,0,.309.115c.424,0,1.088-.7,2-2.107Zm-2.347-12.8a1.8,1.8,0,0,1,.5-1.271,1.763,1.763,0,0,1,1.282-.527,1.74,1.74,0,0,1,1.271.538,1.715,1.715,0,0,1,.55,1.282,1.836,1.836,0,0,1-.492,1.248,1.8,1.8,0,0,1-1.408.55,1.85,1.85,0,0,1-1.122-.469,1.618,1.618,0,0,1-.584-1.351Zm.08,16.384Zm12.319-3.79.767.481a9.8,9.8,0,0,1-2.817,3.034,5.048,5.048,0,0,1-2.462.653,3.785,3.785,0,0,1-2.862-1.122,4.1,4.1,0,0,1-1.065-2.931,8.93,8.93,0,0,1,2.336-5.793,6.718,6.718,0,0,1,5.141-2.794,3.542,3.542,0,0,1,2.164.607,1.965,1.965,0,0,1,.824,1.66,1.882,1.882,0,0,1-.492,1.443,1.744,1.744,0,0,1-1.225.458,1.689,1.689,0,0,1-1.008-.355,1.262,1.262,0,0,1-.481-1.065,1.731,1.731,0,0,1,.263-.859,1.588,1.588,0,0,0,.3-.607q0-.481-.584-.481c-.939,0-1.82.9-2.645,2.7a11.63,11.63,0,0,0-1.225,4.786q0,2.645,1.923,2.645c1.03,0,2.084-.824,3.16-2.462Zm-.114-9.938ZM90.324,179.34Zm11.083-4.832a6.2,6.2,0,0,0-.16,1.259c0,1.488.618,2.244,1.843,2.244.916,0,1.935-.824,3.023-2.462l.767.458a8.185,8.185,0,0,1-2.3,2.817,4.309,4.309,0,0,1-2.622.9,4.211,4.211,0,0,1-2.9-1.065,3.738,3.738,0,0,1-1.191-2.931,9.077,9.077,0,0,1,2.324-5.816,6.847,6.847,0,0,1,5.37-2.828,3.245,3.245,0,0,1,1.992.607,2.038,2.038,0,0,1,.8,1.74,4.239,4.239,0,0,1-1.832,3.057,9.706,9.706,0,0,1-5.118,2.027Zm.195-.882a6.354,6.354,0,0,0,3.08-1.672,4.2,4.2,0,0,0,1.294-3.114q0-.962-.79-.962c-.653,0-1.317.538-2.015,1.626a12.478,12.478,0,0,0-1.569,4.11Zm3.629-8.015Zm-1.683,13.739Zm12.216-3.629a8.926,8.926,0,0,1,2.324-5.919,6.962,6.962,0,0,1,5.45-2.725,4.191,4.191,0,0,1,2.92,1.1,3.867,3.867,0,0,1,1.225,3.046,8.979,8.979,0,0,1-2.233,5.759,6.692,6.692,0,0,1-5.358,2.736,4.761,4.761,0,0,1-3.023-1.03,3.58,3.58,0,0,1-1.305-2.965Zm3.149,1.385c0,1.2.458,1.809,1.385,1.809q1.632,0,2.92-3.469a17.276,17.276,0,0,0,1.305-5.885c0-1.122-.435-1.683-1.294-1.683-1.179,0-2.2,1.145-3.057,3.446a17.334,17.334,0,0,0-1.259,5.782Zm4.809-11.5Zm8.049,3h-1.809l.263-1.145h1.82c1.111-4.5,3.171-6.732,6.183-6.732h0a2.6,2.6,0,0,1,1.958.641,2.016,2.016,0,0,1,.618,1.477,1.545,1.545,0,0,1-.343,1.042,1.14,1.14,0,0,1-.939.389,1.29,1.29,0,0,1-1.03-.389,1.466,1.466,0,0,1-.343-.973.857.857,0,0,1,.195-.561.667.667,0,0,0,.206-.366.426.426,0,0,0-.114-.355.431.431,0,0,0-.321-.1c-.95,0-1.763,1.282-2.427,3.858l-.527,2.072h2.507l-.263,1.145h-2.45a85.77,85.77,0,0,1-3.126,12.033c-1.156,2.759-2.794,4.133-4.889,4.133h0a2.988,2.988,0,0,1-1.946-.572,2.041,2.041,0,0,1-.676-1.626,1.381,1.381,0,0,1,.355-.95,1.308,1.308,0,0,1,1.053-.4,1.29,1.29,0,0,1,1.294,1.282,1.346,1.346,0,0,1-.206.744,1.607,1.607,0,0,0-.195.366.311.311,0,0,0,.114.275.587.587,0,0,0,.343.08,1.489,1.489,0,0,0,1.374-1.053,25.316,25.316,0,0,0,1.1-3.881q.876-4.139,2.233-10.43Zm19.155,2.084-1.4,5.232a6.928,6.928,0,0,0-.286,1.569.962.962,0,0,0,.481.95,3.338,3.338,0,0,0,1.42.24v.664h-7.854v-.664a2.649,2.649,0,0,0,1.454-.561,3.232,3.232,0,0,0,.687-1.443l3.252-11.884a7.3,7.3,0,0,0,.3-1.649.755.755,0,0,0-.5-.824,9.718,9.718,0,0,0-1.454-.263V161.4h7.66q5.582,0,5.587,4.236a4.563,4.563,0,0,1-1.889,3.721,7.99,7.99,0,0,1-5.061,1.477c-.8,0-1.6-.046-2.4-.126Zm.275-.859c.481.034.847.057,1.1.057a3.384,3.384,0,0,0,3.126-1.488,6.79,6.79,0,0,0,.939-3.652q0-2.507-2.164-2.507c-.492,0-.813.114-.962.355a3.253,3.253,0,0,0-.366.927l-1.672,6.309Zm8.186,9.514h0l1.775-5.931a21.669,21.669,0,0,0,.985-4,.657.657,0,0,0-.355-.664,2.62,2.62,0,0,0-1.122-.172h0v-.721s.664-.057,1.992-.183a18.925,18.925,0,0,0,3.332-.6h0L164.47,171.9a17.7,17.7,0,0,1,2.759-4.145,2.452,2.452,0,0,1,1.488-.664,1.336,1.336,0,0,1,1.088.481,1.825,1.825,0,0,1,.424,1.282,2.308,2.308,0,0,1-.424,1.408,1.365,1.365,0,0,1-1.179.584,1.333,1.333,0,0,1-1-.538,2,2,0,0,1-.263-.309c-.092-.149-.183-.218-.286-.218-.389,0-.939.607-1.649,1.832a22.372,22.372,0,0,0-1.9,4.671c-.4,1.374-.721,2.393-.939,3.057h-3.206Zm7.373-13.739Zm-4.866,13.739Zm18.044-11.884h3.16c-.515,1.786-1.042,3.561-1.557,5.335a34.618,34.618,0,0,0-1.2,4.545c0,.355.137.538.435.538.378,0,1-.641,1.866-1.923l.561.355q-1.924,3.418-4.259,3.412a1.77,1.77,0,0,1-1.328-.435,1.546,1.546,0,0,1-.435-1.122,10.858,10.858,0,0,1,.561-2.828,17.962,17.962,0,0,1-2.931,3.446,3.7,3.7,0,0,1-2.37.939,2.161,2.161,0,0,1-1.557-.538,2.007,2.007,0,0,1-.55-1.511,20.733,20.733,0,0,1,.962-4.259,22.951,22.951,0,0,0,1.019-4.019q0-.824-1.477-.824v-.721a20.19,20.19,0,0,0,3-.332c1.042-.183,1.912-.332,2.6-.447h0l-2.6,8.335a6.194,6.194,0,0,0-.355,1.717c0,.435.195.664.6.664.469,0,1.088-.458,1.843-1.362a11.013,11.013,0,0,0,1.294-1.832,34.046,34.046,0,0,0,2.691-7.144Zm-1.042-1.843Zm1.74,13.739ZM169.942,167.1Zm25.177,1.878q0,3.589-7.717,10.762h-.721l.16-4.614c0-1.168-.046-2.221-.137-3.137a11.508,11.508,0,0,0-.492-2.794.959.959,0,0,0-.939-.607h-.458v-.721c.836-.126,2.221-.378,4.122-.779a39.5,39.5,0,0,1,.882,8.885h0q3.383-3.744,3.389-5a1.913,1.913,0,0,0-.584-1.03,2.129,2.129,0,0,1-.584-1.374,1.444,1.444,0,0,1,.424-1.042,1.344,1.344,0,0,1,1.03-.447,1.639,1.639,0,0,1,1.088.492,1.739,1.739,0,0,1,.561,1.385Zm6.446,6.812.618.378a11.119,11.119,0,0,1-2.473,2.942,3.38,3.38,0,0,1-1.9.641c-1.248,0-1.878-.6-1.878-1.786a9.314,9.314,0,0,1,.435-2.164l1.328-4.923a7.646,7.646,0,0,0,.321-1.431c0-.561-.469-.847-1.4-.847h-.183v-.721a31.8,31.8,0,0,0,5.4-.779h0l-2.381,8.679a7.081,7.081,0,0,0-.321,1.694.388.388,0,0,0,.115.3.414.414,0,0,0,.309.115c.424,0,1.088-.7,2-2.107Zm-2.347-12.8a1.8,1.8,0,0,1,.5-1.271,1.763,1.763,0,0,1,1.282-.527,1.74,1.74,0,0,1,1.271.538,1.715,1.715,0,0,1,.55,1.282,1.836,1.836,0,0,1-.492,1.248,1.8,1.8,0,0,1-1.408.55,1.849,1.849,0,0,1-1.122-.469,1.618,1.618,0,0,1-.584-1.351Zm.08,16.384Zm10.327-2.965a9.47,9.47,0,0,1-2.359,2.725,3.633,3.633,0,0,1-2.027.618,2.614,2.614,0,0,1-2.13-.916,3.878,3.878,0,0,1-.767-2.588,9.979,9.979,0,0,1,2.393-6.022q2.4-3.108,4.843-3.114a2.043,2.043,0,0,1,2.084,1.878s.172-.5.5-1.534l2.942-.183-2.267,7.534a10.444,10.444,0,0,0-.538,2.622c0,.3.126.458.378.458.332,0,.95-.618,1.866-1.866l.561.389c-1.42,2.244-2.759,3.378-4,3.378a1.84,1.84,0,0,1-1.282-.481,1.644,1.644,0,0,1-.538-1.259,6.691,6.691,0,0,1,.321-1.626Zm-3.916-.092a1.689,1.689,0,0,0,.343,1.145,1.062,1.062,0,0,0,.813.389c.893,0,1.82-.985,2.759-2.965a12.461,12.461,0,0,0,1.42-5.255c0-.927-.332-1.4-1.008-1.4-.939,0-1.9,1.03-2.874,3.08a12.634,12.634,0,0,0-1.454,4.992Zm5.45-10.671Zm1.6,13.739Zm8.93,0h0v-.664a3.031,3.031,0,0,0,1.237-.4,2.369,2.369,0,0,0,.847-1.477l3.275-11.919a7.448,7.448,0,0,0,.321-1.843.678.678,0,0,0-.263-.584,4.173,4.173,0,0,0-1.695-.389v-.664h7.934v.664a2.549,2.549,0,0,0-1.42.5,2.637,2.637,0,0,0-.744,1.374L227.9,176.26a5.544,5.544,0,0,0-.206,1.317c0,.733.641,1.111,1.923,1.145v.664h-7.934Zm7.992-19.43Zm-3.79,19.43ZM222.552,161Zm9.846,18.388,1.9-6.767a25.93,25.93,0,0,0,.847-3.32.515.515,0,0,0-.321-.55,3.57,3.57,0,0,0-1.145-.126V167.9a23.164,23.164,0,0,0,5.335-.779h0l-1.672,5.209a32.835,32.835,0,0,1,2.839-3.778,3.924,3.924,0,0,1,3.023-1.431c1.294,0,1.946.721,1.946,2.152a19.281,19.281,0,0,1-1.191,4.454c-.55,1.546-.882,2.53-.985,2.965a5,5,0,0,0-.172.721.662.662,0,0,0,.092.4.439.439,0,0,0,.343.1c.343,0,.939-.641,1.809-1.923l.618.332a9.721,9.721,0,0,1-2.13,2.713,3.357,3.357,0,0,1-2.038.721c-1.259,0-1.889-.584-1.889-1.763a19.753,19.753,0,0,1,1.156-4.648c.481-1.42.79-2.347.939-2.771a3.007,3.007,0,0,0,.229-.916.574.574,0,0,0-.172-.469.646.646,0,0,0-.469-.16c-.6,0-1.385.733-2.37,2.187a21.121,21.121,0,0,0-2.45,5.049c-.321,1.019-.618,2.061-.87,3.1H232.4Zm8.278-13.739Zm-2.381,13.739ZM254.438,167.5v1.145h-2.13l-1.992,7.1a8.175,8.175,0,0,0-.343,1.706.568.568,0,0,0,.1.355.424.424,0,0,0,.321.115c.24,0,.6-.275,1.053-.847a9.19,9.19,0,0,0,.893-1.259l.618.378a10.76,10.76,0,0,1-2.53,2.988,3.487,3.487,0,0,1-1.855.584,2.154,2.154,0,0,1-1.317-.424,1.538,1.538,0,0,1-.561-1.317h0a14.6,14.6,0,0,1,.664-3.068l1.775-6.309h-1.317v-.962a10.094,10.094,0,0,0,4.877-4.145h.927l-1.076,3.95h1.866Zm-4.889,11.884Zm8.175-4.832a6.2,6.2,0,0,0-.16,1.259c0,1.488.618,2.244,1.843,2.244.916,0,1.935-.824,3.023-2.462l.767.458a8.185,8.185,0,0,1-2.3,2.817,4.309,4.309,0,0,1-2.622.9,4.211,4.211,0,0,1-2.9-1.065,3.738,3.738,0,0,1-1.191-2.931,9.077,9.077,0,0,1,2.324-5.816,6.847,6.847,0,0,1,5.37-2.828,3.245,3.245,0,0,1,1.992.607,2.038,2.038,0,0,1,.8,1.74,4.24,4.24,0,0,1-1.832,3.057,9.706,9.706,0,0,1-5.118,2.027Zm.195-.882A6.354,6.354,0,0,0,261,172a4.2,4.2,0,0,0,1.294-3.114q0-.962-.79-.962c-.653,0-1.317.538-2.015,1.626a12.477,12.477,0,0,0-1.569,4.11Zm3.629-8.015ZM259.865,179.4Zm18.388-11.381v1.5h-1.786v-.023a4.284,4.284,0,0,1,.16,1.122,4.171,4.171,0,0,1-1.694,3.423,6.206,6.206,0,0,1-3.916,1.328h-.126a2.268,2.268,0,0,1-.687-.1,1.886,1.886,0,0,0-.63-.115.709.709,0,0,0-.538.343,1.058,1.058,0,0,0-.263.607c0,.378.424.71,1.248.962.847.252,1.362.4,1.534.447a7.652,7.652,0,0,1,3.229,1.466,2.557,2.557,0,0,1,.8,1.866,3.314,3.314,0,0,1-1.763,2.885,8.744,8.744,0,0,1-4.717,1.111,8.65,8.65,0,0,1-3.526-.676,2.165,2.165,0,0,1-1.511-1.981,2.311,2.311,0,0,1,.7-1.729,6.805,6.805,0,0,1,2.851-1.179c-1.065-.378-1.6-.95-1.6-1.717a1.776,1.776,0,0,1,.481-1.248,8.62,8.62,0,0,1,2.027-1.362,3.419,3.419,0,0,1-1.546-1.088,2.989,2.989,0,0,1-.561-1.866,4.439,4.439,0,0,1,1.649-3.355,6.231,6.231,0,0,1,4.316-1.477,4.629,4.629,0,0,1,2.908.882h2.965Zm-9.8,11.564a2.464,2.464,0,0,0-1.214.721,2.022,2.022,0,0,0-.813,1.523,1.818,1.818,0,0,0,.813,1.454,3.217,3.217,0,0,0,2.049.63,5.2,5.2,0,0,0,2.622-.492,1.558,1.558,0,0,0,.8-1.374c0-.687-.412-1.191-1.248-1.523-.561-.206-1.156-.412-1.809-.63a5.986,5.986,0,0,0-1.191-.309Zm1.065-6.652c0,1.088.4,1.626,1.2,1.626.767,0,1.42-.572,1.981-1.706a7.4,7.4,0,0,0,.824-3.206c0-1.133-.4-1.706-1.214-1.706s-1.477.607-2.015,1.8a8.292,8.292,0,0,0-.779,3.194Zm2.988-7.27Zm5.4,13.739h0l1.775-5.931a21.67,21.67,0,0,0,.985-4,.657.657,0,0,0-.355-.664,2.62,2.62,0,0,0-1.122-.172h0v-.721s.664-.057,1.992-.183a18.925,18.925,0,0,0,3.332-.6h0l-1.523,4.809a17.7,17.7,0,0,1,2.759-4.145,2.452,2.452,0,0,1,1.488-.664,1.336,1.336,0,0,1,1.088.481,1.825,1.825,0,0,1,.424,1.282,2.308,2.308,0,0,1-.424,1.408,1.365,1.365,0,0,1-1.179.584,1.333,1.333,0,0,1-1-.538,2,2,0,0,1-.263-.309c-.092-.149-.183-.218-.286-.218-.389,0-.939.607-1.649,1.832a22.37,22.37,0,0,0-1.9,4.671c-.4,1.374-.721,2.393-.939,3.057H277.91Zm7.373-13.739ZM280.417,179.4Zm14.77-2.965a9.47,9.47,0,0,1-2.359,2.725,3.633,3.633,0,0,1-2.027.618,2.614,2.614,0,0,1-2.13-.916,3.878,3.878,0,0,1-.767-2.588,9.979,9.979,0,0,1,2.393-6.022q2.4-3.108,4.843-3.114a1.874,1.874,0,0,1,1.523.641,1.921,1.921,0,0,1,.55,1.237s.172-.5.5-1.534l2.942-.183-2.267,7.534a10.445,10.445,0,0,0-.538,2.622c0,.3.126.458.378.458.332,0,.95-.618,1.866-1.866l.561.389c-1.42,2.244-2.759,3.378-4,3.378a1.84,1.84,0,0,1-1.282-.481,1.644,1.644,0,0,1-.538-1.259,6.69,6.69,0,0,1,.321-1.626Zm-3.916-.092a1.689,1.689,0,0,0,.343,1.145,1.062,1.062,0,0,0,.813.389c.893,0,1.82-.985,2.759-2.965a12.461,12.461,0,0,0,1.42-5.255c0-.927-.332-1.4-1.008-1.4-.939,0-1.9,1.03-2.874,3.08a12.634,12.634,0,0,0-1.454,4.992Zm5.45-10.671Zm1.6,13.739Zm10.533-11.884v1.145h-2.118l-1.992,7.1a8.174,8.174,0,0,0-.343,1.706.568.568,0,0,0,.1.355.424.424,0,0,0,.321.115c.24,0,.6-.275,1.053-.847a9.192,9.192,0,0,0,.893-1.259l.618.378a10.98,10.98,0,0,1-2.519,2.988,3.517,3.517,0,0,1-1.855.584,2.154,2.154,0,0,1-1.317-.424,1.538,1.538,0,0,1-.561-1.317h0a14.6,14.6,0,0,1,.664-3.068l1.775-6.309h-1.317v-.962a10.1,10.1,0,0,0,4.877-4.145h.927l-1.076,3.95h1.866Zm-4.889,11.884Zm8.175-4.832a6.2,6.2,0,0,0-.16,1.259c0,1.488.618,2.244,1.843,2.244.916,0,1.935-.824,3.023-2.462l.767.458a8.184,8.184,0,0,1-2.3,2.817,4.309,4.309,0,0,1-2.622.9,4.211,4.211,0,0,1-2.9-1.065,3.738,3.738,0,0,1-1.191-2.931,9.077,9.077,0,0,1,2.324-5.816,6.847,6.847,0,0,1,5.37-2.828,3.245,3.245,0,0,1,1.992.607,2.038,2.038,0,0,1,.8,1.74,4.239,4.239,0,0,1-1.832,3.057,9.706,9.706,0,0,1-5.118,2.027Zm.195-.882a6.354,6.354,0,0,0,3.08-1.672,4.2,4.2,0,0,0,1.294-3.114q0-.962-.79-.962c-.653,0-1.317.538-2.015,1.626a12.478,12.478,0,0,0-1.569,4.11Zm3.629-8.015Zm-1.683,13.739Zm12.434-3.183c-1.282,2.37-2.759,3.549-4.454,3.549a2.521,2.521,0,0,1-2.164-1.03,4.186,4.186,0,0,1-.744-2.473,9.754,9.754,0,0,1,2.45-6.057c1.649-2.049,3.263-3.068,4.877-3.068a2.83,2.83,0,0,1,1.958.824l1.042-3.9a4.212,4.212,0,0,0,.183-.962c0-.515-.355-.767-1.053-.767h-.607v-.721a39.062,39.062,0,0,0,5.587-.779l-3.24,11.426c-.9,3.252-1.351,4.98-1.351,5.187,0,.275.115.4.355.4.183,0,.447-.183.79-.538a7.666,7.666,0,0,0,1.019-1.362l.618.435c-1.362,2.221-2.668,3.332-3.881,3.332a1.646,1.646,0,0,1-1.214-.389,1.67,1.67,0,0,1-.389-1.2,7.517,7.517,0,0,1,.1-1.1c.069-.447.115-.721.126-.813Zm-4,.046c0,1.076.378,1.614,1.145,1.614.973,0,1.923-1.122,2.862-3.366a14.785,14.785,0,0,0,1.408-4.935c0-.882-.321-1.317-.95-1.317-.985,0-1.981,1.03-2.977,3.1a12.156,12.156,0,0,0-1.5,4.9Z" transform="translate(0 -159.83)" fill="#fff"/>
        </g>
        <g id="Group_180" data-name="Group 180" transform="translate(338.969)">
          <path id="Path_294" data-name="Path 294" d="M296.06,179.305v-.664a2.274,2.274,0,0,0,1.511-.641,3.976,3.976,0,0,0,.641-1.362l3.229-11.839a7.082,7.082,0,0,0,.321-1.695.834.834,0,0,0-.618-.847,3.578,3.578,0,0,0-1.34-.24v-.664h8.553v.664a2.955,2.955,0,0,0-2.038.55,3.149,3.149,0,0,0-.859,1.5l-3.252,12.388a5.768,5.768,0,0,0-.195,1.156c0,.527.561.779,1.695.779,3.767,0,6.492-1.431,8.152-4.3l.664.126-1.591,5.083H296.06Zm8.576-19.475Zm-1.145,19.475Zm-6.812-18.433Zm21.616,14.861.618.378a11.119,11.119,0,0,1-2.473,2.942,3.38,3.38,0,0,1-1.9.641c-1.248,0-1.878-.6-1.878-1.786a9.313,9.313,0,0,1,.435-2.164l1.328-4.923a7.644,7.644,0,0,0,.321-1.431c0-.561-.469-.847-1.4-.847h-.183v-.721a31.8,31.8,0,0,0,5.4-.779h0l-2.381,8.679a7.082,7.082,0,0,0-.321,1.694.388.388,0,0,0,.115.3.414.414,0,0,0,.309.115c.424,0,1.088-.7,2-2.107Zm-2.347-12.8a1.8,1.8,0,0,1,.5-1.271,1.763,1.763,0,0,1,1.282-.527,1.74,1.74,0,0,1,1.271.538,1.715,1.715,0,0,1,.55,1.282,1.836,1.836,0,0,1-.492,1.248,1.8,1.8,0,0,1-1.408.55,1.849,1.849,0,0,1-1.122-.469,1.618,1.618,0,0,1-.584-1.351Zm.08,16.384Zm8.244-7.053a19.253,19.253,0,0,1,3.572-4.4,3.975,3.975,0,0,1,2.267-.824,1.752,1.752,0,0,1,1.225.458,1.542,1.542,0,0,1,.515,1.225,7.816,7.816,0,0,1-.653,2.7,17.25,17.25,0,0,1,3.08-3.675,3.8,3.8,0,0,1,2.21-.7,1.823,1.823,0,0,1,1.488.618,2.134,2.134,0,0,1,.5,1.443,18.244,18.244,0,0,1-1.214,4.511q-.584,1.7-.893,2.61a4.965,4.965,0,0,0-.286,1.237.423.423,0,0,0,.08.263.4.4,0,0,0,.343.114h.057c.195,0,.424-.16.687-.492a16.29,16.29,0,0,0,1.053-1.431l.618.332a9.014,9.014,0,0,1-2.233,2.759,3.483,3.483,0,0,1-2.027.664,1.571,1.571,0,0,1-1.8-1.763,18.824,18.824,0,0,1,1.191-4.66c.8-2.347,1.2-3.584,1.2-3.7a.52.52,0,0,0-.584-.6c-.664,0-1.477.7-2.45,2.084s-2.049,4.145-3.3,8.255h-3.206l2.3-7.213a12.308,12.308,0,0,0,.653-2.519c0-.4-.16-.607-.481-.607-.618,0-1.488.824-2.622,2.473a25.907,25.907,0,0,0-3.1,7.866h-3.206l2-7.018a16.476,16.476,0,0,0,.744-3.034c0-.481-.378-.721-1.145-.721h-.321v-.721l1.66-.137a23.459,23.459,0,0,0,3.675-.641h0l-1.626,5.209Zm21.445,3.469.618.378a11.12,11.12,0,0,1-2.473,2.942,3.38,3.38,0,0,1-1.9.641c-1.248,0-1.878-.6-1.878-1.786a9.313,9.313,0,0,1,.435-2.164l1.328-4.923a7.647,7.647,0,0,0,.321-1.431c0-.561-.469-.847-1.4-.847h-.183v-.721a31.8,31.8,0,0,0,5.4-.779h0l-2.381,8.679a7.08,7.08,0,0,0-.321,1.694.388.388,0,0,0,.115.3.414.414,0,0,0,.309.115c.424,0,1.088-.7,2-2.107Zm-2.347-12.8a1.8,1.8,0,0,1,.5-1.271,1.763,1.763,0,0,1,1.282-.527,1.74,1.74,0,0,1,1.271.538,1.715,1.715,0,0,1,.55,1.282,1.836,1.836,0,0,1-.492,1.248,1.8,1.8,0,0,1-1.408.55,1.85,1.85,0,0,1-1.122-.469,1.618,1.618,0,0,1-.584-1.351Zm.08,16.384Zm11.037-11.884v1.145h-2.13l-1.992,7.1a8.174,8.174,0,0,0-.343,1.706.568.568,0,0,0,.1.355.424.424,0,0,0,.321.115c.24,0,.6-.275,1.053-.847a9.19,9.19,0,0,0,.893-1.259l.618.378a10.98,10.98,0,0,1-2.519,2.988,3.517,3.517,0,0,1-1.855.584,2.154,2.154,0,0,1-1.317-.424,1.538,1.538,0,0,1-.561-1.317h0a14.6,14.6,0,0,1,.664-3.068l1.775-6.309H347.88v-.962a10.094,10.094,0,0,0,4.877-4.145h.927l-1.076,3.95h1.866ZM349.6,179.317Zm8.175-4.832a6.2,6.2,0,0,0-.16,1.259c0,1.488.618,2.244,1.843,2.244.916,0,1.935-.824,3.023-2.462l.767.458a8.184,8.184,0,0,1-2.3,2.817,4.309,4.309,0,0,1-2.622.9,4.212,4.212,0,0,1-2.9-1.065,3.738,3.738,0,0,1-1.191-2.931,9.077,9.077,0,0,1,2.324-5.816,6.847,6.847,0,0,1,5.37-2.828,3.245,3.245,0,0,1,1.992.607,2.038,2.038,0,0,1,.8,1.74,4.239,4.239,0,0,1-1.832,3.057,9.706,9.706,0,0,1-5.118,2.027Zm.195-.882a6.354,6.354,0,0,0,3.08-1.672,4.2,4.2,0,0,0,1.294-3.114q0-.962-.79-.962c-.641,0-1.317.538-2.015,1.626a12.477,12.477,0,0,0-1.569,4.11Zm3.629-8.015Zm-1.683,13.739Zm12.434-3.183c-1.282,2.37-2.759,3.549-4.454,3.549a2.521,2.521,0,0,1-2.164-1.03,4.186,4.186,0,0,1-.744-2.473,9.688,9.688,0,0,1,2.45-6.057q2.473-3.074,4.877-3.068a2.83,2.83,0,0,1,1.958.824l1.042-3.9a4.212,4.212,0,0,0,.183-.962c0-.515-.355-.767-1.065-.767h-.607v-.721a39.061,39.061,0,0,0,5.587-.779l-3.24,11.426c-.9,3.252-1.351,4.98-1.351,5.187,0,.275.114.4.355.4.183,0,.447-.183.79-.538a7.668,7.668,0,0,0,1.019-1.362l.618.435c-1.362,2.221-2.668,3.332-3.881,3.332a1.646,1.646,0,0,1-1.214-.389,1.67,1.67,0,0,1-.389-1.2,7.516,7.516,0,0,1,.1-1.1c.069-.447.115-.721.126-.813Zm-3.984.046c0,1.076.378,1.614,1.145,1.614.973,0,1.923-1.122,2.862-3.366a14.785,14.785,0,0,0,1.408-4.935c0-.882-.321-1.317-.95-1.317-.985,0-1.981,1.03-2.977,3.1a12.156,12.156,0,0,0-1.5,4.9Zm12.995-14.93.618-.366a17.114,17.114,0,0,1,3.767,10.133,13.3,13.3,0,0,1-1.969,7.236,20.7,20.7,0,0,1-5.919,5.782l-.492-.561a16.332,16.332,0,0,0,4.58-6.675,26.379,26.379,0,0,0,1.271-8.679,14.05,14.05,0,0,0-1.843-6.858Z" transform="translate(-296.06 -159.83)" fill="#fff"/>
        </g>
      </g>
      <g id="Group_182" data-name="Group 182" transform="translate(4.156 146.597)">
        <g transform="matrix(1, 0, 0, 1, -11.54, -151.5)" filter="url(#Path_295)">
          <path id="Path_295-2" data-name="Path 295" d="M16.236,134.52v19.246H8.874V134.52H3.63v-6.08H21.468v6.08ZM46.2,153.767h-8.61l-3.721-9.675H31.475v9.675H23.689V128.441H36.913a10.242,10.242,0,0,1,6.8,2.049,6.735,6.735,0,0,1,2.416,5.416,8.111,8.111,0,0,1-.893,3.87,7.514,7.514,0,0,1-3.618,2.965ZM31.475,138.7H34.8a4.075,4.075,0,0,0,2.359-.618,2.052,2.052,0,0,0,.893-1.809q0-2.439-2.988-2.439H31.475v4.855Zm32.4,15.067-1.4-4.969H55.587L54.1,153.767H47.8l7.831-25.326h8.209l7.969,25.326H63.888ZM57,143.256h4.053l-2.027-7.328-2.015,7.328Zm38.733,10.51H89.385L82.424,142.6a37.241,37.241,0,0,1-2.645-5.255A17.451,17.451,0,0,1,80.4,141.5v12.262H74.1V128.441h7.328l5.908,9.274A35.49,35.49,0,0,1,90,142.581a36.363,36.363,0,0,1-.6-6.641v-7.5h6.343v25.326Zm1.786-7.362,7.213-1.294c.607,2.049,2.152,3.068,4.671,3.068,1.946,0,2.92-.515,2.92-1.557a1.47,1.47,0,0,0-.676-1.271,6.914,6.914,0,0,0-2.416-.8q-6.646-1.271-8.53-3.332a6.935,6.935,0,0,1-1.889-4.843,7.583,7.583,0,0,1,2.714-5.954q2.713-2.37,7.808-2.37,7.728,0,10.2,6.217l-6.412,1.946a3.948,3.948,0,0,0-4.065-2.542q-2.542,0-2.542,1.58a1.245,1.245,0,0,0,.572,1.1,6.776,6.776,0,0,0,2.221.733,46.24,46.24,0,0,1,6.457,1.672,6.806,6.806,0,0,1,3.183,2.53,7.132,7.132,0,0,1,1.271,4.236,7.527,7.527,0,0,1-3.114,6.24,13.063,13.063,0,0,1-8.175,2.393q-9.24,0-11.415-7.74Zm33.581-1.832v9.182h-7.9V128.429H134a15.89,15.89,0,0,1,6.148.927,7.45,7.45,0,0,1,3.332,2.839,7.707,7.707,0,0,1,1.237,4.282,7.427,7.427,0,0,1-2.519,5.851,9.756,9.756,0,0,1-6.721,2.221H131.1Zm-.114-5.427h2.576c2.278,0,3.412-.859,3.412-2.565,0-1.6-1.053-2.416-3.16-2.416h-2.839v4.969Zm27.57,15a11.492,11.492,0,0,1-8.713-3.538q-3.366-3.538-3.366-9.469a13.766,13.766,0,0,1,3.217-9.366,11.229,11.229,0,0,1,8.93-3.7,11.429,11.429,0,0,1,8.621,3.481,12.9,12.9,0,0,1,3.332,9.3,13.71,13.71,0,0,1-3.355,9.663A11.256,11.256,0,0,1,158.551,154.144Zm-.034-5.736a2.945,2.945,0,0,0,2.839-1.717c.572-1.145.87-3.24.87-6.286q0-6.612-3.561-6.618c-2.565,0-3.847,2.507-3.847,7.545q0,7.076,3.7,7.076Zm37.829,5.347h-8.61l-3.721-9.675h-2.393v9.675h-7.786V128.429H187.06a10.242,10.242,0,0,1,6.8,2.049,6.735,6.735,0,0,1,2.416,5.416,8.11,8.11,0,0,1-.893,3.87,7.514,7.514,0,0,1-3.618,2.965Zm-14.724-15.067h3.32a4.075,4.075,0,0,0,2.359-.618,2.052,2.052,0,0,0,.893-1.809q0-2.439-2.988-2.439h-3.584v4.855Zm29.036-4.179v19.246h-7.362V134.509h-5.232v-6.08H215.9v6.08h-5.232Zm72.268,13.018v6.228H265.156V128.429h7.786v19.1h9.984Zm13.281,6.606a11.492,11.492,0,0,1-8.713-3.538q-3.366-3.538-3.366-9.469a13.766,13.766,0,0,1,3.217-9.366,11.229,11.229,0,0,1,8.93-3.7,11.429,11.429,0,0,1,8.621,3.481,12.9,12.9,0,0,1,3.332,9.3,13.71,13.71,0,0,1-3.355,9.663,11.256,11.256,0,0,1-8.667,3.629Zm-.034-5.736a2.945,2.945,0,0,0,2.839-1.717c.572-1.145.87-3.24.87-6.286q0-6.612-3.561-6.618c-2.565,0-3.847,2.507-3.847,7.545q0,7.076,3.7,7.076Zm37.187-8.85v14.2h-3.8a14.685,14.685,0,0,0-1.019-2.656q-2.353,3.04-6.984,3.034a10.462,10.462,0,0,1-8.049-3.423c-2.107-2.278-3.16-5.37-3.16-9.251a14.96,14.96,0,0,1,3.046-9.537q3.057-3.864,9.079-3.87a11.022,11.022,0,0,1,7.293,2.3,10.854,10.854,0,0,1,3.584,6.526l-7.522.744q-.567-3.95-3.481-3.95c-2.565,0-3.836,2.427-3.836,7.27,0,2.931.412,4.855,1.225,5.793a3.841,3.841,0,0,0,2.977,1.4,3.587,3.587,0,0,0,2.416-.859,2.969,2.969,0,0,0,1.008-2.336h-4.213v-5.393h11.426Zm11.873-11.117v25.326h-7.786V128.429Zm1.775,17.964,7.213-1.294c.607,2.049,2.152,3.068,4.671,3.068,1.946,0,2.92-.515,2.92-1.557a1.47,1.47,0,0,0-.676-1.271,6.915,6.915,0,0,0-2.416-.8q-6.646-1.271-8.53-3.332a6.935,6.935,0,0,1-1.889-4.843,7.583,7.583,0,0,1,2.713-5.954q2.713-2.37,7.808-2.37c5.152,0,8.541,2.072,10.2,6.217l-6.412,1.946a3.948,3.948,0,0,0-4.065-2.542q-2.542,0-2.542,1.58a1.27,1.27,0,0,0,.572,1.1,6.776,6.776,0,0,0,2.221.733,46.241,46.241,0,0,1,6.457,1.672,6.806,6.806,0,0,1,3.183,2.53,7.132,7.132,0,0,1,1.271,4.236,7.527,7.527,0,0,1-3.114,6.24,13.063,13.063,0,0,1-8.175,2.393q-9.24,0-11.415-7.74Zm36.375-11.884v19.246H376.02V134.509h-5.244v-6.08h17.838v6.08H383.37Zm15.228-6.08v25.326h-7.786V128.429Zm18.3,15.674,7.1.424a10.328,10.328,0,0,1-3.435,7.121,11.777,11.777,0,0,1-15.525-.927c-2.118-2.267-3.171-5.416-3.171-9.411q0-5.942,3-9.606a10.219,10.219,0,0,1,8.369-3.652q5.015,0,7.717,2.771a11.445,11.445,0,0,1,3.046,7.35l-7.247.389a5.561,5.561,0,0,0-.962-3.652,2.915,2.915,0,0,0-2.278-1.133q-3.658,0-3.652,7.385c0,2.759.321,4.637.95,5.622a3.016,3.016,0,0,0,2.679,1.488q3.074,0,3.435-4.179Z" transform="translate(7.91 23.46)" fill="#fff"/>
        </g>
        <g transform="matrix(1, 0, 0, 1, -11.54, -151.5)" filter="url(#Path_296)">
          <path id="Path_296-2" data-name="Path 296" d="M217.947,138.96l6.572.8a14.831,14.831,0,0,1-4.179,7.831,3.617,3.617,0,0,0,2.393.71,16.18,16.18,0,0,0,1.775-.115v5.427a11.6,11.6,0,0,1-3,.412,9.1,9.1,0,0,1-5.954-2.038q-2.542,2.147-7.259,2.152A12.183,12.183,0,0,1,201,152.081a6.729,6.729,0,0,1-2.862-5.759q0-4.912,5.828-6.95a8.167,8.167,0,0,1-2.038-4.935,5.6,5.6,0,0,1,2.2-4.648,9.644,9.644,0,0,1,6.057-1.729,9.461,9.461,0,0,1,5.828,1.649,5.369,5.369,0,0,1,2.2,4.557,5.9,5.9,0,0,1-1.431,4.03,7.272,7.272,0,0,1-3.309,2.2l2.588,2.771A8.492,8.492,0,0,0,217.947,138.96Zm-7.476-2.118a2.439,2.439,0,0,0,1.82-2.336,1.849,1.849,0,0,0-.515-1.34,1.83,1.83,0,0,0-1.408-.538,1.788,1.788,0,0,0-1.271.458,1.476,1.476,0,0,0-.492,1.111q0,1.2,1.855,2.645Zm-3.114,6.228a2.8,2.8,0,0,0-1.82,2.771,2.67,2.67,0,0,0,.859,2.061,3.333,3.333,0,0,0,2.359.779,4.024,4.024,0,0,0,2.851-1l-4.236-4.614Z" transform="translate(36.1 23.46)" fill="#fff"/>
        </g>
      </g>
      <g id="Group_183" data-name="Group 183" transform="translate(1.62 23.16)">
        <g transform="matrix(1, 0, 0, 1, -9, -28.06)" filter="url(#Path_297)">
          <path id="Path_297-2" data-name="Path 297" d="M55.313,114.244l32.31.069c66.521,65.444,47.263-87.53,15.09-23.07L77.65,90.155c2.588,3.584,6.206,2.668,12.743,6.274-7.5-.55-19.452-3.194-25.1,1.294-5.667,4.5-.447,7.144-22.177,7.041-22.624-.1-30.352.355-36.191-14.964-.9-2.37-1.076-3.916-2.485-5.576C-2.06,89,3.436,106.562,6.768,109.63c5.656,5.232,1.214,13.762,23.952,12.239,9.457-.63,12.182-2.45,16.773-7.408l7.82-.24Zm57.109,2.622c9.354-1.992,7.19-16.418,9.331-21.261.412,6.228.572,13.922-2.53,19.521-1.5,2.7-1.878,1.866-3.87,4.168,12.285-.229,11.163-29.631,3.114-34.531C109,79,103.812,105.314,112.422,116.855Z" transform="translate(7.59 15.77)" fill="#fff" fill-rule="evenodd"/>
        </g>
        <g transform="matrix(1, 0, 0, 1, -9, -28.06)" filter="url(#Path_298)">
          <path id="Path_298-2" data-name="Path 298" d="M16.46,66.234C24.978,63.211,26.9,58.757,42.393,56.5A288.6,288.6,0,0,1,92.735,53.72c14.6.492,23.986-11.552,29-24.788l-14.071-.447c.9-.034,16.247-3.046,25.074-3.664a171.318,171.318,0,0,1,54.27,4.545c8.45,2.027,15.491,5.736,22.567,7.522-3.572-3.607-21.422-9.045-27.192-10.362-44.1-10.1-94.308-10.5-132.961,17.243C43.011,48.373,36.9,55.036,34.6,55.941,30.371,57.6,19.357,61.952,16.46,66.222Z" transform="translate(9.77 7.83)" fill="#fff" fill-rule="evenodd"/>
        </g>
        <g transform="matrix(1, 0, 0, 1, -9, -28.06)" filter="url(#Path_299)">
          <path id="Path_299-2" data-name="Path 299" d="M101.341,60.449c15.537-.607,21.445-.366,37.256.149-.046-8.381-2.21-13.419-3.343-20.7,4.007,6.973,4.66,12.594,7.156,20.918l39.2,4.339a72.637,72.637,0,0,0-3.732-14.048c-2.015-4.958-4.248-6.709-9.205-9.068-8.221-3.916-17.907-7.064-27.455-9.7-11.793-3.263-20.666-6.366-27.455,2.9-4.316,5.874-10.533,16.6-12.434,25.2Z" transform="translate(22.07 9.12)" fill="#fff" fill-rule="evenodd"/>
        </g>
        <path id="Path_300" data-name="Path 300" d="M133.43,62.6c.183.1.469-.011.584.229s.435.172.6.206.424.126.63.172l19.8,1.454c39.523,3.3-10.51,15.88-20.929,17.449.9.011,22.578-2.759,31.841-3.355l10.82-13.739c-14.415-1.351-28.726-2.656-43.324-2.416Z" transform="translate(17.719 -14.091)" fill="#fff" fill-rule="evenodd"/>
        <g transform="matrix(1, 0, 0, 1, -9, -28.06)" filter="url(#Path_301)">
          <path id="Path_301-2" data-name="Path 301" d="M57.8,81.138c6.641,1.4,11.919-3.366,20.918-2.942,7.728.366,10.705-6.446,11.7-13.373C78.821,63.586,61.1,68.636,57.8,81.138Z" transform="translate(15.76 14.27)" fill="#fff" fill-rule="evenodd"/>
        </g>
        <g transform="matrix(1, 0, 0, 1, -9, -28.06)" filter="url(#Path_302)">
          <path id="Path_302-2" data-name="Path 302" d="M16.13,72.059c9.457-.195,16.773-1.259,28.5-1.282,3.71,0,6.7-.607,8.633,1.443,2.7,3.561-2.278,10.476-12.594,13.316-9.949,2.736-13.98,1.271-22.876-1.03C29.755,93.6,65.843,88.832,62.752,70.64c-5.908-2.714-41.16-2.244-46.622,1.42Z" transform="translate(9.72 14.89)" fill="#fff" fill-rule="evenodd"/>
        </g>
        <path id="Path_303" data-name="Path 303" d="M4.748,79.419c3.8,1.843,5.9,4.179,10.625,4.717-.538-4.362-3.091-13.7-7.763-14.976C4.5,71.221,4.588,74.885,4.748,79.419Z" transform="translate(-0.941 -13.136)" fill="#fff" fill-rule="evenodd"/>
        <g transform="matrix(1, 0, 0, 1, -9, -28.06)" filter="url(#Path_304)">
          <path id="Path_304-2" data-name="Path 304" d="M179.622,72.88c-1.866,1.03-4.923,5.015-6.721,6.755-11.873,11.472-28.612,20.666-44.664,23.448-4.522.79-13.865,1.649-16.819.3-.046-.023-.1-.046-.149-.069h0l.172-.114-.8,2.9.149.023.5-2.965h0l-.5,2.965.149.023.08.011a40.013,40.013,0,0,0,14.655-.034c14.472-2.427,27.536-9.022,39.26-18.124a83.233,83.233,0,0,0,8.335-7.419l5.954-6.664c.939-1.66.275-.321.378-1.03Z" transform="translate(23.42 15.46)" fill="#fff" fill-rule="evenodd"/>
        </g>
      </g>
      <g id="Group_185" data-name="Group 185" transform="translate(177.27)">
        <g transform="matrix(1, 0, 0, 1, -184.65, -4.9)" filter="url(#Path_305)">
          <path id="Path_305-2" data-name="Path 305" d="M154.83,140.562h27.192V88.009h25.566c31.039,0,46.874-19.075,46.874-44.847,0-23.54-15.01-42.2-44.229-42.2H154.841v139.6Zm52.827-118.89,18.777,23.162L207.657,66.885H182.263L201.039,44.6,182.263,21.672h25.395Z" transform="translate(29.82 5.04)" fill="#fff"/>
        </g>
        <g id="_2086582538960" transform="translate(148.086 1.099)">
          <g transform="matrix(1, 0, 0, 1, -332.74, -6)" filter="url(#Path_306)">
            <path id="Path_306-2" data-name="Path 306" d="M284.17,140.562h44.962l-.206-24.753H311.351V.96H284.17Z" transform="translate(48.57 5.04)" fill="#fff"/>
          </g>
          <g id="Group_184" data-name="Group 184" transform="translate(30.81 114.848)">
            <g transform="matrix(1, 0, 0, 1, -363.55, -120.85)" filter="url(#Path_307)">
              <path id="Path_307-2" data-name="Path 307" d="M336.864,126.023H311.08l12.663-12.331L311.08,101.27h25.784l10.281,12.548Z" transform="translate(52.47 19.58)" fill="#fff" fill-rule="evenodd"/>
            </g>
            <g transform="matrix(1, 0, 0, 1, -363.55, -120.85)" filter="url(#Path_308)">
              <path id="Path_308-2" data-name="Path 308" d="M370.789,101.27l10.282,12.674-10.282,12.079h-13.9l10.281-12.2L356.89,101.27Z" transform="translate(59.11 19.58)" fill="#fff" fill-rule="evenodd"/>
            </g>
            <g transform="matrix(1, 0, 0, 1, -363.55, -120.85)" filter="url(#Path_309)">
              <path id="Path_309-2" data-name="Path 309" d="M352.161,101.27l10.282,12.674-10.282,12.079H338.25l10.282-12.2L338.25,101.27Z" transform="translate(56.4 19.58)" fill="#fff" fill-rule="evenodd"/>
            </g>
          </g>
        </g>
        <g transform="matrix(1, 0, 0, 1, -184.65, -4.9)" filter="url(#Path_310)">
          <path id="Path_310-2" data-name="Path 310" d="M276.949,72.76v58.85l-14.117-9.572L248.6,131.609V72.76l14.38-11.77Z" transform="translate(43.41 13.74)" fill="#fff" fill-rule="evenodd"/>
        </g>
        <g transform="matrix(1, 0, 0, 1, -184.65, -4.9)" filter="url(#Path_311)">
          <path id="Path_311-2" data-name="Path 311" d="M276.949,51.331V68.86L263.129,57.09,248.6,68.86V51.331L262.98,39.55Z" transform="translate(43.41 10.63)" fill="#fff" fill-rule="evenodd"/>
        </g>
        <path id="Path_312" data-name="Path 312" d="M248.6,11.77,263.129,0l13.819,11.77V27.7L262.98,15.926,248.6,27.7Z" transform="translate(-141.24)" fill="#fff" fill-rule="evenodd"/>
        <g transform="matrix(1, 0, 0, 1, -184.65, -4.9)" filter="url(#Path_313)">
          <path id="Path_313-2" data-name="Path 313" d="M248.6,32.08l14.529-11.77,13.819,11.77V48.006L262.98,36.236,248.6,48.006Z" transform="translate(43.41 7.84)" fill="#fff" fill-rule="evenodd"/>
        </g>
      </g>
    </g>
  </g>
</svg>
